PathFileType	4	(X/Y/Z)	pose_F01_0-96.trc
DataRate	CameraRate	NumFrames	NumMarkers	Units	OrigDataRate	OrigDataStartFrame	OrigNumFrames
30	30	9	21	m	30	48	96
Frame#	Time	CHip			RHip			RKnee			RAnkle			RBigToe			RSmallToe			RHeel			LHip			LKnee			LAnkle			LBigToe			LSmallToe			LHeel			Neck			Nose			RShoulder			RElbow			RWrist			LShoulder			LElbow			LWrist			
		X1	Y1	Z1	X2	Y2	Z2	X3	Y3	Z3	X4	Y4	Z4	X5	Y5	Z5	X6	Y6	Z6	X7	Y7	Z7	X8	Y8	Z8	X9	Y9	Z9	X10	Y10	Z10	X11	Y11	Z11	X12	Y12	Z12	X13	Y13	Z13	X14	Y14	Z14	X15	Y15	Z15	X16	Y16	Z16	X17	Y17	Z17	X18	Y18	Z18	X19	Y19	Z19	X20	Y20	Z20	X21	Y21	Z21	
48	1.6	-0.1678530394497503	1.8668914136619899	-0.5123627536595207	-0.17356777641305646	1.863249986301679	-0.44778615661993704	-0.1625010865051415	1.7030280395234072	-0.4289125119230148	-0.1908578837491714	1.5261227969741091	-0.3840596549018096	-0.13664934646090668	1.484798717830048	-0.3643969847545516	-0.15170085850875945	1.4885414090458022	-0.33812250872918254	-0.20554371319795575	1.510431903311462	-0.3888493795856791	-0.16170669380297148	1.8701285063456534	-0.5795138720398813	-0.17810570122196867	1.70515687318095	-0.5767671510648285													-0.18213548661885318	2.0554313211080784	-0.5313106573646591	-0.13449152673384207	2.1275026003335116	-0.5339544511076366	-0.19430660425235735	2.05532776793403	-0.43939978988993184	-0.1087866539347721	2.045892022039762	-0.41299737885052623	-0.007757334136432341	2.0958752582860347	-0.43121877080119964	-0.17048762662562342	2.0592317467032655	-0.6245185393950243	-1.5991832376190427	1.8836985578009335	0.9243024912995348	-0.08764469663826933	1.9409611380486715	-0.5738551019256568
49	1.6333333333333333	-0.1654311648401899	1.8701613555791108	-0.5150860283791738	-0.17143778142211097	1.8669784768612978	-0.45068264522289064	-0.16201258163972865	1.7053772695064178	-0.42979714188690266	-0.19095037474556512	1.526560700743311	-0.3841871243865385	-0.13664934646090668	1.484798717830048	-0.3643969847545516	-0.1528615656439208	1.4891476319041177	-0.3410655718963875	-0.20526926910482846	1.510442558647029	-0.3891692928655219	-0.15832929441261792	1.8733493967440953	-0.5791522059827161	-0.1749483794706989	1.7138012548714967	-0.585309156701327													-0.18216588869502467	2.055400153706255	-0.5313663606687035	-0.13542371520309424	2.127776991735302	-0.5369051155711273	-0.19530563412705335	2.0554301904535355	-0.4425621662549153	-0.10962935954823264	2.045638230798223	-0.42423659167024635	-0.010974448403643589	2.10273554522721	-0.44306596504483164	-0.17254504794832903	2.0577916102172304	-0.6217682387154874	-1.600881212262155	1.8836314118046045	0.9263227139721141	-0.08475714484910139	1.9406442692815762	-0.5730016807477094
50	1.6666666666666667	-0.16615718229385384	1.8691619960998633	-0.5180604535520379	-0.1711176030223444	1.867059910919383	-0.4507119930432862	-0.15997282301287985	1.702572475056923	-0.4316833810666907	-0.1909462280418992	1.5265786326958135	-0.3841891627852554	-0.13664934646090668	1.484798717830048	-0.3643969847545516	-0.15117427010679155	1.4900139421125742	-0.3432025999201595	-0.20499482501170113	1.510453213982596	-0.38948920614536464	-0.15918401570657234	1.8732475696719684	-0.5823714020656068	-0.17842465735758514	1.704520359856593	-0.5848964525323672													-0.18305040786880736	2.0555457648940605	-0.534358224735638	-0.1372794068437426	2.1291362092735544	-0.5354261834554678	-0.19529529858640438	2.0555073102037014	-0.4426183148477296	-0.10771110098017675	2.046448250484327	-0.4176541821938278	-0.0092121874962569	2.112604300875253	-0.43962863387969076	-0.17257850437497113	2.057790603858846	-0.6217942596258673	-1.6085385685382656	1.8834594237611177	0.9407350649514743	-0.08055567120141376	1.941062930454229	-0.5777527332341702
51	1.7	-0.16537880845262348	1.867515365812556	-0.5148168250346965	-0.17211725026557356	1.8657902752315307	-0.4538010677285941	-0.1578881255790939	1.7014946322104425	-0.4338412772566361	-0.19097831010849367	1.524350816812184	-0.38348425861177937	-0.1363676546636312	1.484015666357613	-0.36435402838699293	-0.14902967296479686	1.489386571332605	-0.34536627190258035	-0.20472038091857384	1.5104638693181631	-0.38980911942520746	-0.15914540041472308	1.8702692070169622	-0.5819640464195487	-0.1799631609633676	1.705279892351786	-0.5835163477773003													-0.18215377718773276	2.055386168216116	-0.5312946607275709	-0.13726981046189254	2.1303211077655195	-0.5352392208333575	-0.19527303044971814	2.0554272242228047	-0.4425333770526583	-0.10664861424991248	2.0483476609527638	-0.42287697980446437	-0.019662062146091817	2.1135444125628853	-0.43171716684068767	-0.17256462967338226	2.057769523192754	-0.6217183785310922	-1.608388465651095	1.8840709600063956	0.9403651649909878	-0.07628997158033668	1.9414284574252836	-0.5826782760720488
52	1.7333333333333334	-0.16445240586464135	1.8665963677485407	-0.5201662871872305	-0.17055162480900468	1.8639124915757608	-0.45579318911683225	-0.15811031520843818	1.7034077826683063	-0.43386050828404865	-0.1889105341076443	1.5257914524867673	-0.3861956232588712	-0.13587799845197132	1.4835533517805843	-0.36481907549258347	-0.1511308324020307	1.4899050395197517	-0.343188314187234	-0.2044459368254465	1.51047452465373	-0.3901290327050502	-0.15832795781703507	1.8695152389480592	-0.5875051055215471	-0.1827153877839056	1.7038706409302413	-0.5802353311676862													-0.18218937667713295	2.0553714303526474	-0.5313158091490865	-0.13725115378046768	2.1317263551136674	-0.5357932587147322	-0.19524356279857794	2.055460781617625	-0.4424997878676626	-0.10675587850461278	2.045494098534718	-0.42323549587480447	-0.02154473770412879	2.117667069202391	-0.42840572242592334	-0.17256863680731757	2.057761658374943	-0.6217734249298096	-1.607200138505993	1.8835247155719888	0.9393618239969875	-0.07635519373273676	1.9415590208107094	-0.5825383667622496
53	1.7666666666666666	-0.16579884078891738	1.8682140579846374	-0.5182119831255095	-0.16995169773171362	1.8654383074575296	-0.45602709916003087	-0.15785771343490715	1.6990509341158149	-0.4335289666376517	-0.18888110969691177	1.525860900103651	-0.3862280286451288	-0.13538834224031143	1.4830910372035557	-0.365284122598174	-0.15028460402587906	1.4864641929854325	-0.34356630077372785	-0.20417149273231922	1.510485179989297	-0.390448945984893	-0.15981851484072843	1.8710918725794332	-0.5854535147372237	-0.17928708899752285	1.7027090220071892	-0.5879839359415032													-0.18204894071833355	2.0563997466955968	-0.5311031048913414	-0.13724705035481932	2.131755888682733	-0.5358303063491422	-0.19044524731537502	2.055241855088705	-0.4437416198129638	-0.10189814260883598	2.046543824179602	-0.42457619785937034	-0.02347427744385431	2.1152103055876763	-0.4255428532862704	-0.175861081957261	2.0571065792186025	-0.6136168838155991	-1.607225326021737	1.8833176862968466	0.9394411180211694	-0.0763106039766337	1.9413091192133989	-0.582575920502028
54	1.8	-0.166388958344525	1.8664595503965071	-0.5178580492707578	-0.17036407992312985	1.8647897901088328	-0.4559532678032365	-0.1569340191177981	1.7065803444806633	-0.4355995056789611	-0.18935635928942532	1.5280327117588581	-0.38586052881045974	-0.13489868602865154	1.4826287226265271	-0.36574916970376453	-0.14985337437463267	1.4887269186161063	-0.3402317840215493	-0.2038970486391919	1.510495835324864	-0.39076885926473576	-0.15935409163330513	1.8690065430179763	-0.5818953212226312	-0.1803190555955636	1.7047997591351454	-0.5829602123671521													-0.1811331850957823	2.0563266364588437	-0.5281533415258406	-0.1371759336934625	2.13531504341307	-0.5360112337294696	-0.1903693951425312	2.0552769634289976	-0.44378562400796184	-0.10193947572663058	2.04545579943131	-0.4246547190622882	-0.022615685828789707	2.114210674610042	-0.42254991146084075	-0.173793221542819	2.058556903484947	-0.6162167279931924	-0.1519094994419925	1.9710204119054175	-0.6364172954626789	-0.07914544230212428	1.9438177123110119	-0.5837879028828409
55	1.8333333333333333	-0.16391434642988137	1.8666404760071238	-0.520270050756398	-0.1681116830072428	1.8640042216681083	-0.45811375855855246	-0.1552424575730659	1.7038218694372236	-0.4328322766208071	-0.18783371643018681	1.525741748180534	-0.3828629591709771	-0.13440902981699165	1.4821664080494985	-0.36621421680935506	-0.14943058377745108	1.4871611876127626	-0.34021541371890407	-0.20380490664708434	1.509447076123698	-0.39067393858864224	-0.15479458505577248	1.8709546706539872	-0.586886013536817	-0.18336227053396956	1.7044962662200218	-0.5796812445614362													-0.18108285653054376	2.0562598243781105	-0.5280925129510344	-0.13625973012927817	2.1352413435291093	-0.53292518067028	-0.18747764095991556	2.0552157963952964	-0.4428169829814069	-0.09712926726944	2.0465892421774283	-0.4258555899191795	-0.02070426071328999	2.114379486223873	-0.42278745741051293	-0.17288596700710704	2.058473130646161	-0.6132886187042498	-0.1497782373552706	1.9712722776466551	-0.6385887183283779	-0.0742595001967388	1.9414510920814603	-0.584825660495128
56	1.8666666666666667	-0.16299412664151827	1.8665762245009765	-0.5171230338806229	-0.1671351533382291	1.8639712789634615	-0.4548350425438694	-0.15441378805617714	1.6979362676892666	-0.43280151603067235	-0.18881386425285687	1.525518190980471	-0.3860989013469567	-0.1339193736053318	1.4817040934724701	-0.36667926391494554	-0.150557536081484	1.4875056525763468	-0.3435916088801067	-0.20371276465497676	1.508398316922532	-0.39057901791254873	-0.15463596287418907	1.8696127925678128	-0.586669758310606	-0.18548508347758916	1.7011560682820484	-0.5770885112372995													-0.18005522553857795	2.057290707613092	-0.5249414589076672	-0.13531490433699173	2.1371528464227976	-0.5295422855453149	-0.18556137137548853	2.0553803677242435	-0.44493650761126713	-0.09806756118043113	2.0458889756059015	-0.41974105281251306	-0.01897776388396153	2.1145732200618914	-0.41711939870967946	-0.16982744642557887	2.059467945019026	-0.6123189625715418	-0.1531049541578379	1.9732117406415044	-0.6312774261508796	-0.08464680864605954	1.9437763557012697	-0.5734011812367884
